<svg width="192" height="58" viewBox="0 0 192 58" fill="none" xmlns="http://www.w3.org/2000/svg">
<g clip-path="url(#clip0_259_151)">
<path d="M12.7241 44.59C15.0699 44.59 17.2054 44.0231 19.1307 42.9001C21.0561 41.7772 22.5498 40.2836 23.6121 38.4193L18.2123 35.3776C17.7255 36.3588 16.9952 37.122 16.0215 37.678C15.0367 38.234 13.9302 38.5065 12.6688 38.5065C10.8099 38.5065 9.26076 37.896 8.04361 36.675C6.82646 35.4539 6.21788 33.9167 6.21788 32.0415C6.21788 30.1663 6.82646 28.5855 8.04361 27.3644C9.26076 26.1434 10.8099 25.5329 12.6688 25.5329C13.8859 25.5329 14.9924 25.8163 15.9662 26.3832C16.9399 26.9501 17.6812 27.7242 18.157 28.7054L23.5014 25.6201C22.5056 23.7558 21.045 22.2622 19.1197 21.161C17.1944 20.049 15.0588 19.5039 12.713 19.5039C9.08372 19.5039 6.0519 20.7032 3.62867 23.1126C1.20543 25.522 -0.0117188 28.4983 -0.0117188 32.0415C-0.0117188 35.5847 1.20543 38.5611 3.62867 40.9705C6.0519 43.3798 9.08372 44.5791 12.713 44.5791L12.7241 44.59Z" fill="#621FFF"/>
<path d="M81.4498 38.1792H70.7499L80.974 24.257V20.1904H62.927V25.9359H72.6089L62.4512 39.8472V43.9246H81.4498V38.1792Z" fill="#621FFF"/>
<path d="M36.7692 44.2311H49.2284C55.9448 44.2311 61.3999 38.8562 61.3999 32.2386C61.3999 25.6209 55.9448 20.2461 49.2284 20.2461H36.7692C30.0527 20.2461 24.5977 25.6209 24.5977 32.2386C24.5977 38.8562 30.0527 44.2311 36.7692 44.2311ZM36.7692 25.8171H49.2284C52.8245 25.8171 55.7457 28.6953 55.7457 32.2386C55.7457 35.7818 52.8245 38.66 49.2284 38.66H36.7692C33.173 38.66 30.2519 35.7818 30.2519 32.2386C30.2519 28.6953 33.173 25.8171 36.7692 25.8171Z" fill="#621FFF"/>
<path d="M103.722 19.9613V20.3646C103.722 24.6492 103.722 28.9229 103.722 33.2075C103.722 33.8834 103.667 34.5594 103.523 35.2244C103.003 37.6338 101.565 39.2801 99.1967 40.065C97.4484 40.6428 95.6891 40.4684 93.9851 39.7816C92.945 39.3673 92.1925 38.6477 91.7278 37.6665C91.5286 37.2413 91.3848 36.7725 91.2631 36.3146C91.1192 35.7913 91.1082 35.2353 91.1082 34.6902C91.1082 29.915 91.1082 25.1289 91.1082 20.3537C91.1082 20.212 91.1082 20.0812 91.0971 19.9395H85.2105V20.3101C85.2105 25.5432 85.2105 30.7872 85.2105 36.0203C85.2105 36.9688 85.3101 37.9173 85.5535 38.8331C86.3723 41.9511 88.2534 44.1643 91.3516 45.2872C93.4871 46.0613 95.7001 46.1594 97.9131 45.6688C100.359 45.1346 102.295 43.8699 103.512 41.6676C103.534 41.624 103.578 41.6022 103.645 41.5259C103.645 41.6458 103.656 41.7113 103.656 41.7767C103.656 43.0304 103.678 44.2842 103.656 45.5379C103.645 46.1267 103.589 46.7154 103.479 47.2932C103.014 49.5718 101.653 51.1526 99.4622 52.0139C98.2783 52.4827 97.039 52.5917 95.7665 52.4609C93.9076 52.2755 92.3474 51.5124 91.0307 50.2259C90.2119 49.4192 89.6587 48.438 89.2824 47.3695C89.2382 47.2496 89.1939 47.1297 89.1386 46.9989C87.2465 47.8383 85.3876 48.6669 83.5176 49.4955C83.584 49.6808 83.6393 49.8334 83.6946 49.9861C84.8122 52.8316 86.7043 55.012 89.4705 56.4402C90.9975 57.2143 92.6241 57.6504 94.3281 57.8575C94.6932 57.9011 95.0473 57.9447 95.4125 57.9883H97.548C97.6587 57.9665 97.7582 57.9338 97.8689 57.9338C99.2078 57.8357 100.513 57.5958 101.764 57.127C105.814 55.6334 108.436 52.8643 109.498 48.7214C109.819 47.4785 109.919 46.2139 109.93 44.9274C109.93 42.0492 109.93 39.1819 109.93 36.3037V19.9395H103.733L103.722 19.9613Z" fill="#621FFF"/>
<path d="M129.78 25.8923H124.092V36.2058C124.092 37.0671 124.314 37.6885 124.745 38.0919C125.177 38.4844 125.819 38.7133 126.659 38.7569C127.5 38.8005 128.541 38.8005 129.78 38.7351V44.5351C125.321 45.0366 122.178 44.6224 120.352 43.2923C118.527 41.9731 117.608 39.6073 117.608 36.2058V25.8923H113.227V19.7434H117.608V14.7393L124.092 12.8096V19.7543H129.78V25.9032V25.8923Z" fill="#621FFF"/>
<path d="M141.243 24.0063C141.851 22.4255 142.847 21.2262 144.241 20.4413C145.635 19.6454 147.184 19.2529 148.9 19.2529V26.3939C146.919 26.165 145.149 26.5574 143.588 27.5823C142.028 28.6071 141.254 30.3078 141.254 32.6845V44.5353H134.77V19.7544H141.254V24.0172L141.243 24.0063Z" fill="#621FFF"/>
<path d="M155.883 16.7788C154.809 16.7788 153.88 16.3863 153.094 15.6123C152.309 14.8382 151.91 13.9224 151.91 12.8649C151.91 11.8074 152.309 10.8807 153.094 10.0848C153.88 9.28897 154.809 8.89648 155.883 8.89648C156.956 8.89648 157.941 9.28897 158.726 10.0848C159.512 10.8807 159.91 11.8074 159.91 12.8649C159.91 13.9224 159.512 14.8382 158.726 15.6123C157.941 16.3863 156.989 16.7788 155.883 16.7788ZM152.663 44.536V19.7551H159.147V44.536H152.663Z" fill="#621FFF"/>
<path d="M179.728 19.0566C183.113 19.0566 186.001 20.3213 188.403 22.8506C190.804 25.3799 191.999 28.4762 191.999 32.1393C191.999 35.8025 190.804 38.9096 188.403 41.4281C186.001 43.9574 183.113 45.2221 179.728 45.2221C176.342 45.2221 173.487 44.0119 171.584 41.6025V54.4454H165.1V19.7544H171.584V22.6762C173.498 20.2668 176.209 19.0566 179.728 19.0566ZM173.542 37.1653C174.848 38.4736 176.508 39.1277 178.521 39.1277C180.535 39.1277 182.206 38.4736 183.523 37.1653C184.84 35.857 185.515 34.189 185.515 32.1393C185.515 30.0897 184.851 28.4108 183.523 27.1134C182.195 25.816 180.524 25.151 178.521 25.151C176.519 25.151 174.848 25.8051 173.542 27.1134C172.237 28.4217 171.584 30.1006 171.584 32.1393C171.584 34.1781 172.237 35.8679 173.542 37.1653Z" fill="#621FFF"/>
<path d="M69.5203 7.21764C69.5535 7.33756 69.5535 7.49019 69.631 7.57741C70.9809 9.27816 70.4055 9.28907 69.2769 10.4229C67.086 12.6361 64.8841 14.8492 62.649 17.0297C61.3876 18.2507 59.7167 17.9564 59.0086 16.4518C58.6324 15.6451 58.7098 14.8383 59.3405 14.206C61.8634 11.6331 64.4304 9.09282 66.9643 6.5417C67.4401 6.062 67.9048 6.25824 68.3806 6.53079C68.7126 6.71613 69.0445 6.91237 69.3765 7.09771C69.4208 7.14132 69.465 7.18493 69.5203 7.22854V7.21764Z" fill="#621FFF"/>
<path d="M55.5014 13.0608C54.6051 13.7804 53.6978 13.8894 52.6023 13.3552C51.8942 13.0063 51.3962 12.036 51.6175 11.142C52.4917 7.67511 53.4211 4.23 54.3285 0.773984C54.4944 0.152556 54.9039 -0.0436849 55.5014 0.0217286C55.9218 0.0653377 56.3423 0.130751 56.7517 0.228871C58.6549 0.697668 58.8762 1.06835 58.3893 2.91083C57.6369 5.77812 56.9066 8.64541 56.1431 11.5018C55.9993 12.0469 55.7227 12.5484 55.5014 13.0717V13.0608Z" fill="#621FFF"/>
<path d="M43.8603 13.0823C43.6612 12.6899 43.3956 12.3192 43.2739 11.894C42.3666 8.74325 41.4814 5.58159 40.6183 2.41994C40.3195 1.31881 40.4855 1.01355 41.5588 0.566557C41.8022 0.468437 42.0457 0.370316 42.2891 0.304903C44.2365 -0.24021 44.5685 -0.0548714 45.0996 1.85302C45.9184 4.79663 46.7483 7.74024 47.5782 10.6729C47.8216 11.5342 47.7995 12.3192 47.1134 13.006C46.1287 13.9981 44.9226 14.0199 43.8493 13.0823H43.8603Z" fill="#621FFF"/>
</g>
<defs>
<clipPath id="clip0_259_151">
<rect width="192" height="58" fill="white"/>
</clipPath>
</defs>
</svg>
