<svg xmlns="http://www.w3.org/2000/svg" width="169" height="44" viewBox="0 0 169 44" fill="none"><path d="M62.2978 30.2083C57.3713 30.2083 53.6382 26.7099 53.6382 21.3048C53.6382 15.8997 57.5295 12.4307 62.4561 12.4307C67.3826 12.4307 71.2739 15.9023 71.2739 21.3048C71.2739 26.7072 67.2673 30.2083 62.2978 30.2083ZM62.2978 27.1158C64.9797 27.1158 67.6025 25.2091 67.6025 21.3048C67.6025 17.4005 65.0601 15.5231 62.3917 15.5231C59.7233 15.5231 57.2774 17.3925 57.2774 21.3048C57.2774 25.2171 59.616 27.1158 62.2978 27.1158Z" fill="white"></path><path d="M82.8615 12.4309C87.4206 12.4309 90.9874 15.9293 90.9874 21.2436C90.9874 26.558 87.4099 30.2112 82.8615 30.2112C81.7137 30.2168 80.5787 29.9706 79.5372 29.4901C78.4957 29.0096 77.5733 28.3067 76.8354 27.4312V38.1133H73.2578V12.7113H76.8354V15.243C77.5573 14.3469 78.4758 13.6275 79.5205 13.1401C80.5651 12.6526 81.708 12.41 82.8615 12.4309ZM82.0757 15.5234C79.4099 15.5234 76.8354 17.6171 76.8354 21.3051C76.8354 24.993 79.4099 27.1161 82.0757 27.1161C84.7414 27.1161 87.3482 24.961 87.3482 21.241C87.3482 17.5209 84.7736 15.5234 82.0757 15.5234Z" fill="white"></path><path d="M92.4919 8.1396C92.4945 7.69244 92.6299 7.25605 92.881 6.88531C93.1321 6.51457 93.4876 6.22605 93.903 6.05602C94.3183 5.886 94.7749 5.84208 95.2152 5.92977C95.6556 6.01746 96.06 6.23286 96.3778 6.54887C96.6955 6.86488 96.9123 7.26739 97.0008 7.70577C97.0894 8.14416 97.0458 8.59883 96.8756 9.01261C96.7053 9.4264 96.416 9.7808 96.044 10.0313C95.672 10.2817 95.2339 10.417 94.7848 10.4202C94.4828 10.4242 94.1831 10.3679 93.9033 10.2547C93.6235 10.1415 93.3693 9.97372 93.1556 9.76119C92.9419 9.54866 92.7731 9.2957 92.6591 9.0172C92.5451 8.73871 92.4883 8.44031 92.4919 8.1396ZM92.9639 12.7008H96.5414V29.9176H92.9639V12.7008Z" fill="white"></path><path d="M111.945 20.3033C111.945 17.1468 110.221 15.5231 107.617 15.5231C105.013 15.5231 103.254 17.1468 103.254 20.3033V29.9172H99.6787V12.7111H103.254V14.6792C104.415 13.2745 106.33 12.4307 108.4 12.4307C112.45 12.4307 115.493 14.9623 115.493 19.7719V29.9198H111.945V20.3033Z" fill="white"></path><path d="M125.911 30.2083C120.952 30.2083 117.281 26.7099 117.281 21.3048C117.281 15.8997 120.797 12.4307 125.911 12.4307C130.837 12.4307 134.321 15.8356 134.321 20.8989C134.326 21.4843 134.284 22.0692 134.195 22.648H120.984C121.234 25.4921 123.275 27.2093 125.911 27.2093C128.107 27.2093 129.33 26.1411 129.99 24.8058H133.849C132.876 27.8021 130.148 30.2083 125.911 30.2083ZM121.014 19.7719H130.585C130.524 17.1174 128.421 15.4296 125.758 15.4296C123.336 15.4296 121.392 17.0533 121.014 19.7719Z" fill="white"></path><path d="M143.764 30.2083C138.837 30.2083 135.104 26.7099 135.104 21.3048C135.104 15.8997 138.998 12.4307 143.919 12.4307C148.84 12.4307 152.737 15.9023 152.737 21.3048C152.737 26.7072 148.722 30.2083 143.764 30.2083ZM143.764 27.1158C146.429 27.1158 149.066 25.2091 149.066 21.3048C149.066 17.4005 146.526 15.5231 143.858 15.5231C141.189 15.5231 138.743 17.3925 138.743 21.3048C138.743 25.2171 141.066 27.1158 143.764 27.1158Z" fill="white"></path><path fill-rule="evenodd" clip-rule="evenodd" d="M31.3195 13.4849H31.377C32.9789 13.485 34.5449 13.9611 35.8776 14.8532C37.2103 15.7453 38.2501 17.0135 38.8659 18.4979C39.4817 19.9823 39.6459 21.6165 39.3378 23.1944C39.0297 24.7724 38.2631 26.2234 37.1347 27.3647C36.0063 28.506 34.5665 29.2864 32.9969 29.6075C31.4273 29.9286 29.7981 29.7761 28.3147 29.1692C26.8313 28.5623 25.5602 27.5281 24.6614 26.1971C23.7627 24.8661 23.2766 23.2977 23.2645 21.6898H19.8485C19.8487 21.7244 19.849 21.759 19.8495 21.7936H19.7553V36.7948H23.2403V29.8313C24.3159 30.9078 25.5981 31.7659 27.0173 32.349C29.1277 33.2159 31.4466 33.4359 33.6814 32.9811C35.9162 32.5262 37.9667 31.417 39.574 29.7934C41.1813 28.1698 42.2734 26.1046 42.7124 23.8585C43.1514 21.6124 42.9177 19.2861 42.0407 17.1732C41.1638 15.0603 39.6829 13.2556 37.785 11.9869C35.8871 10.7181 33.6572 10.0422 31.377 10.0444H31.3195V13.4849ZM17.2531 29.7716H17.1956C15.5939 29.7715 14.028 29.2955 12.6954 28.4036C11.3627 27.5117 10.3229 26.2437 9.70704 24.7595C9.09115 23.2753 8.92674 21.6413 9.23452 20.0635C9.54229 18.4857 10.3085 17.0346 11.4365 15.8932C12.5646 14.7518 14.004 13.9711 15.5733 13.6495C17.1427 13.3279 18.7717 13.4799 20.2552 14.0862C21.7386 14.6926 23.0101 15.7261 23.9093 17.0566C24.8085 18.3872 25.2952 19.9551 25.3081 21.5629H28.7356C28.7227 19.2746 28.0349 17.0415 26.7591 15.1452C25.4833 13.2488 23.6765 11.7743 21.5668 10.9076C19.457 10.0408 17.1388 9.82076 14.9045 10.2751C12.6703 10.7294 10.6202 11.8378 9.01281 13.4604C7.40542 15.083 6.3128 17.1471 5.87278 19.3923C5.43277 21.6376 5.66507 23.9633 6.54039 26.0762C7.41571 28.1891 8.89482 29.9944 10.7911 31.2643C12.6874 32.5343 14.916 33.2121 17.1956 33.2121H17.2531V29.7716Z" fill="white"></path><path d="M83.8268 40.9854V36.5134C83.8268 36.204 83.8775 35.956 83.9788 35.7694C84.0855 35.5774 84.2375 35.4387 84.4348 35.3534C84.6322 35.268 84.8668 35.2254 85.1388 35.2254H85.6188V36.0414H85.2828C85.1068 36.0414 84.9788 36.0787 84.8988 36.1534C84.8242 36.2227 84.7868 36.3454 84.7868 36.5214V40.9854H83.8268ZM83.2508 37.7614V36.9534H85.6988V37.7614H83.2508ZM88.249 41.0814C87.865 41.0814 87.5183 40.9934 87.209 40.8174C86.905 40.636 86.665 40.388 86.489 40.0734C86.3183 39.7534 86.233 39.388 86.233 38.9774C86.233 38.556 86.321 38.188 86.497 37.8734C86.673 37.5534 86.913 37.3054 87.217 37.1294C87.5263 36.948 87.873 36.8574 88.257 36.8574C88.641 36.8574 88.985 36.948 89.289 37.1294C89.5983 37.3054 89.8383 37.5507 90.009 37.8654C90.185 38.18 90.273 38.548 90.273 38.9694C90.273 39.3907 90.185 39.7587 90.009 40.0734C89.833 40.388 89.5903 40.636 89.281 40.8174C88.977 40.9934 88.633 41.0814 88.249 41.0814ZM88.249 40.2574C88.441 40.2574 88.6143 40.2094 88.769 40.1134C88.929 40.0174 89.057 39.8734 89.153 39.6814C89.249 39.4894 89.297 39.252 89.297 38.9694C89.297 38.6867 89.249 38.452 89.153 38.2654C89.0623 38.0734 88.937 37.9294 88.777 37.8334C88.6223 37.7374 88.449 37.6894 88.257 37.6894C88.0703 37.6894 87.897 37.7374 87.737 37.8334C87.577 37.9294 87.449 38.0734 87.353 38.2654C87.257 38.452 87.209 38.6867 87.209 38.9694C87.209 39.252 87.257 39.4894 87.353 39.6814C87.449 39.8734 87.5743 40.0174 87.729 40.1134C87.889 40.2094 88.0623 40.2574 88.249 40.2574ZM91.2128 40.9854V36.9534H92.0688L92.1568 37.7054C92.2528 37.5294 92.3728 37.38 92.5168 37.2574C92.6608 37.1294 92.8288 37.0307 93.0208 36.9614C93.2181 36.892 93.4341 36.8574 93.6688 36.8574V37.8734H93.3328C93.1728 37.8734 93.0208 37.8947 92.8768 37.9374C92.7328 37.9747 92.6074 38.0387 92.5008 38.1294C92.3994 38.2147 92.3194 38.3347 92.2608 38.4894C92.2021 38.6387 92.1728 38.828 92.1728 39.0574V40.9854H91.2128ZM97.5056 40.9854L96.0176 35.3854H97.0416L98.0896 39.8894L99.3056 35.3854H100.37L101.546 39.8974L102.602 35.3854H103.634L102.106 40.9854H100.97L99.8176 36.7454L98.6336 40.9854H97.5056ZM104.369 40.9854V35.2254H105.329V37.5774C105.462 37.3587 105.644 37.1854 105.873 37.0574C106.102 36.924 106.361 36.8574 106.649 36.8574C106.98 36.8574 107.26 36.9267 107.489 37.0654C107.718 37.1987 107.892 37.3987 108.009 37.6654C108.132 37.9267 108.193 38.2547 108.193 38.6494V40.9854H107.241V38.7374C107.241 38.3907 107.166 38.1267 107.017 37.9454C106.873 37.764 106.652 37.6734 106.353 37.6734C106.161 37.6734 105.988 37.7214 105.833 37.8174C105.678 37.908 105.556 38.0414 105.465 38.2174C105.374 38.388 105.329 38.5987 105.329 38.8494V40.9854H104.369ZM110.557 41.0814C110.226 41.0814 109.951 41.0254 109.733 40.9134C109.514 40.8014 109.351 40.652 109.245 40.4654C109.138 40.2787 109.085 40.076 109.085 39.8574C109.085 39.6014 109.149 39.38 109.277 39.1934C109.41 39.0067 109.605 38.8627 109.861 38.7614C110.117 38.6547 110.431 38.6014 110.805 38.6014H111.821C111.821 38.388 111.791 38.212 111.733 38.0734C111.674 37.9294 111.583 37.8227 111.461 37.7534C111.338 37.684 111.181 37.6494 110.989 37.6494C110.77 37.6494 110.583 37.7 110.429 37.8014C110.274 37.8974 110.178 38.0467 110.141 38.2494H109.197C109.229 37.9614 109.325 37.716 109.485 37.5134C109.645 37.3054 109.855 37.1454 110.117 37.0334C110.383 36.916 110.674 36.8574 110.989 36.8574C111.367 36.8574 111.69 36.924 111.957 37.0574C112.223 37.1854 112.426 37.372 112.565 37.6174C112.709 37.8574 112.781 38.148 112.781 38.4894V40.9854H111.965L111.869 40.3374C111.815 40.444 111.746 40.5427 111.661 40.6334C111.581 40.724 111.487 40.804 111.381 40.8734C111.274 40.9374 111.151 40.988 111.013 41.0254C110.879 41.0627 110.727 41.0814 110.557 41.0814ZM110.773 40.3214C110.927 40.3214 111.063 40.2947 111.181 40.2414C111.303 40.1827 111.407 40.1027 111.493 40.0014C111.583 39.8947 111.653 39.7774 111.701 39.6494C111.749 39.5214 111.781 39.3854 111.797 39.2414V39.2254H110.909C110.722 39.2254 110.567 39.2494 110.445 39.2974C110.322 39.34 110.234 39.404 110.181 39.4894C110.127 39.5747 110.101 39.6734 110.101 39.7854C110.101 39.8974 110.127 39.9934 110.181 40.0734C110.234 40.1534 110.311 40.2147 110.413 40.2574C110.514 40.3 110.634 40.3214 110.773 40.3214ZM115.496 40.9854C115.224 40.9854 114.987 40.9427 114.784 40.8574C114.587 40.772 114.432 40.6307 114.32 40.4334C114.208 40.236 114.152 39.9694 114.152 39.6334V37.7614H113.464V36.9534H114.152L114.264 35.8894H115.112V36.9534H116.208V37.7614H115.112V39.6334C115.112 39.836 115.155 39.9774 115.24 40.0574C115.331 40.132 115.48 40.1694 115.688 40.1694H116.184V40.9854H115.496ZM118.719 41.0814C118.362 41.0814 118.05 41.0254 117.783 40.9134C117.522 40.796 117.314 40.636 117.159 40.4334C117.01 40.2254 116.922 39.988 116.895 39.7214H117.855C117.882 39.8334 117.93 39.9374 117.999 40.0334C118.069 40.124 118.162 40.196 118.279 40.2494C118.402 40.3027 118.546 40.3294 118.711 40.3294C118.871 40.3294 119.002 40.308 119.103 40.2654C119.205 40.2174 119.279 40.156 119.327 40.0814C119.375 40.0067 119.399 39.9267 119.399 39.8414C119.399 39.7134 119.365 39.6147 119.295 39.5454C119.226 39.476 119.125 39.4227 118.991 39.3854C118.863 39.3427 118.709 39.3027 118.527 39.2654C118.335 39.228 118.149 39.1827 117.967 39.1294C117.791 39.0707 117.631 38.9987 117.487 38.9134C117.349 38.828 117.237 38.7187 117.151 38.5854C117.071 38.452 117.031 38.2894 117.031 38.0974C117.031 37.8627 117.093 37.652 117.215 37.4654C117.343 37.2787 117.525 37.132 117.759 37.0254C117.999 36.9134 118.285 36.8574 118.615 36.8574C119.085 36.8574 119.458 36.9667 119.735 37.1854C120.018 37.3987 120.183 37.7 120.231 38.0894H119.319C119.293 37.94 119.218 37.8254 119.095 37.7454C118.973 37.66 118.81 37.6174 118.607 37.6174C118.399 37.6174 118.239 37.6574 118.127 37.7374C118.021 37.812 117.967 37.9134 117.967 38.0414C117.967 38.1214 117.999 38.196 118.063 38.2654C118.133 38.3294 118.231 38.3854 118.359 38.4334C118.487 38.476 118.645 38.5187 118.831 38.5614C119.13 38.62 119.394 38.6894 119.623 38.7694C119.853 38.8494 120.034 38.9667 120.167 39.1214C120.301 39.276 120.367 39.4947 120.367 39.7774C120.373 40.0334 120.306 40.26 120.167 40.4574C120.034 40.6547 119.845 40.8094 119.599 40.9214C119.354 41.028 119.061 41.0814 118.719 41.0814ZM120.963 40.9854L123.011 35.3854H124.083L126.131 40.9854H125.115L123.539 36.5054L121.963 40.9854H120.963ZM121.875 39.6654L122.131 38.9054H124.891L125.147 39.6654H121.875ZM126.869 42.7454V36.9534H127.725L127.829 37.5374C127.914 37.42 128.016 37.3107 128.133 37.2094C128.256 37.1027 128.402 37.0174 128.573 36.9534C128.749 36.8894 128.949 36.8574 129.173 36.8574C129.552 36.8574 129.885 36.9507 130.173 37.1374C130.466 37.324 130.696 37.5774 130.861 37.8974C131.026 38.212 131.109 38.572 131.109 38.9774C131.109 39.3827 131.024 39.7454 130.853 40.0654C130.688 40.38 130.458 40.628 130.165 40.8094C129.877 40.9907 129.546 41.0814 129.173 41.0814C128.869 41.0814 128.602 41.0254 128.373 40.9134C128.149 40.796 127.968 40.6307 127.829 40.4174V42.7454H126.869ZM128.973 40.2494C129.197 40.2494 129.397 40.196 129.573 40.0894C129.749 39.9827 129.885 39.8334 129.981 39.6414C130.082 39.4494 130.133 39.228 130.133 38.9774C130.133 38.7214 130.082 38.4974 129.981 38.3054C129.885 38.1134 129.749 37.964 129.573 37.8574C129.397 37.7507 129.197 37.6974 128.973 37.6974C128.744 37.6974 128.541 37.7507 128.365 37.8574C128.194 37.964 128.058 38.1134 127.957 38.3054C127.861 38.4974 127.813 38.7187 127.813 38.9694C127.813 39.2254 127.861 39.4494 127.957 39.6414C128.058 39.828 128.194 39.9774 128.365 40.0894C128.541 40.196 128.744 40.2494 128.973 40.2494ZM132.041 42.7454V36.9534H132.897L133.001 37.5374C133.086 37.42 133.188 37.3107 133.305 37.2094C133.428 37.1027 133.574 37.0174 133.745 36.9534C133.921 36.8894 134.121 36.8574 134.345 36.8574C134.724 36.8574 135.057 36.9507 135.345 37.1374C135.638 37.324 135.868 37.5774 136.033 37.8974C136.198 38.212 136.281 38.572 136.281 38.9774C136.281 39.3827 136.196 39.7454 136.025 40.0654C135.86 40.38 135.63 40.628 135.337 40.8094C135.049 40.9907 134.718 41.0814 134.345 41.0814C134.041 41.0814 133.774 41.0254 133.545 40.9134C133.321 40.796 133.14 40.6307 133.001 40.4174V42.7454H132.041ZM134.145 40.2494C134.369 40.2494 134.569 40.196 134.745 40.0894C134.921 39.9827 135.057 39.8334 135.153 39.6414C135.254 39.4494 135.305 39.228 135.305 38.9774C135.305 38.7214 135.254 38.4974 135.153 38.3054C135.057 38.1134 134.921 37.964 134.745 37.8574C134.569 37.7507 134.369 37.6974 134.145 37.6974C133.916 37.6974 133.713 37.7507 133.537 37.8574C133.366 37.964 133.23 38.1134 133.129 38.3054C133.033 38.4974 132.985 38.7187 132.985 38.9694C132.985 39.2254 133.033 39.4494 133.129 39.6414C133.23 39.828 133.366 39.9774 133.537 40.0894C133.713 40.196 133.916 40.2494 134.145 40.2494Z" fill="white"></path></svg>