<svg width="140" height="36" viewBox="0 0 140 36" fill="none" xmlns="http://www.w3.org/2000/svg">
<g clip-path="url(#clip0_83_592)">
<path d="M35.6702 28.0917V4.59644H39.2982V24.6017H50.3205V28.0917H35.6647H35.6702Z" fill="#ffffff"/>
<path d="M60.8111 28.4291C58.9943 28.4291 57.388 28.0419 55.9867 27.2731C54.5854 26.4988 53.4887 25.4424 52.6911 24.0984C51.8935 22.7544 51.5002 21.2112 51.5002 19.469C51.5002 18.0808 51.7218 16.8197 52.1704 15.6748C52.6191 14.5299 53.2394 13.5454 54.037 12.7047C54.8346 11.864 55.7873 11.2169 56.8951 10.7579C58.0029 10.2988 59.2103 10.072 60.5064 10.072C61.6474 10.072 62.7109 10.2877 63.7023 10.7247C64.6882 11.1616 65.5468 11.7589 66.2724 12.5222C66.9979 13.2855 67.5629 14.1815 67.9506 15.2213C68.3439 16.2611 68.5267 17.3949 68.5045 18.6283L68.4713 20.1051H54.0537L53.2782 17.3507H65.4803L64.9763 17.9204V17.1128C64.9098 16.3772 64.6606 15.7135 64.2396 15.1328C63.8186 14.552 63.2758 14.093 62.6278 13.7556C61.9797 13.4182 61.2708 13.2523 60.512 13.2523C59.3045 13.2523 58.2798 13.4846 57.4545 13.9381C56.6237 14.3972 55.9978 15.0664 55.5713 15.9514C55.1448 16.8363 54.9343 17.9259 54.9343 19.2256C54.9343 20.5254 55.1891 21.5265 55.7098 22.428C56.2304 23.3296 56.956 24.032 57.8921 24.5242C58.8337 25.0165 59.9193 25.2599 61.1545 25.2599C62.0296 25.2599 62.8383 25.1161 63.5916 24.8229C64.3448 24.5298 65.1535 24.0043 66.0286 23.2466L67.7789 25.6968C67.2417 26.2333 66.5881 26.7034 65.8126 27.1072C65.0372 27.5109 64.223 27.8262 63.3589 28.064C62.4949 28.3018 61.653 28.418 60.8221 28.418L60.8111 28.4291Z" fill="#ffffff"/>
<path d="M78.3249 35.8129C77.0676 35.8129 75.8214 35.6193 74.5751 35.2266C73.3289 34.8339 72.3264 34.3251 71.5675 33.7001L72.847 31.0121C73.5172 31.5264 74.3536 31.9413 75.3506 32.2565C76.3476 32.5718 77.339 32.7267 78.3249 32.7267C79.5546 32.7267 80.5903 32.5275 81.4156 32.1238C82.2464 31.72 82.8723 31.1282 83.2988 30.3428C83.7253 29.5574 83.9358 28.584 83.9358 27.4225V24.0321L84.3069 24.2644C84.1961 24.9557 83.8306 25.625 83.2157 26.261C82.6009 26.8971 81.831 27.417 80.9116 27.8207C79.9921 28.2245 79.0505 28.4236 78.0868 28.4236C76.4085 28.4236 74.913 28.0254 73.6003 27.2345C72.2876 26.438 71.2518 25.354 70.493 23.9768C69.7342 22.5996 69.352 21.0288 69.352 19.2589C69.352 17.489 69.7286 15.9183 70.4764 14.5411C71.2241 13.1639 72.2599 12.0798 73.5671 11.2834C74.8798 10.4869 76.3531 10.0942 77.9871 10.0942C78.6573 10.0942 79.3108 10.1772 79.9367 10.3487C80.5626 10.5146 81.1442 10.7524 81.687 11.0511C82.2243 11.3553 82.7062 11.6816 83.1326 12.0411C83.5591 12.4006 83.9081 12.7767 84.174 13.1805C84.4454 13.5842 84.6115 13.9659 84.678 14.3198L83.9413 14.5909V10.4648H87.4031V27.0132C87.4031 28.4236 87.1982 29.6681 86.7828 30.7577C86.3673 31.8417 85.7691 32.7598 84.9826 33.512C84.1961 34.2587 83.2434 34.8339 82.1246 35.2211C81.0057 35.6138 79.7373 35.8074 78.3249 35.8074V35.8129ZM78.4579 25.2434C79.5546 25.2434 80.5294 24.9889 81.3824 24.469C82.2354 23.9547 82.8945 23.2467 83.3653 22.3562C83.8361 21.4658 84.0687 20.4315 84.0687 19.27C84.0687 18.1085 83.8305 17.0742 83.3487 16.1672C82.8668 15.2601 82.2077 14.5521 81.3658 14.0378C80.5238 13.5234 79.5546 13.2634 78.4579 13.2634C77.3612 13.2634 76.4251 13.5289 75.5832 14.0544C74.7413 14.5798 74.0822 15.2988 73.6003 16.2003C73.1184 17.1019 72.8802 18.1306 72.8802 19.27C72.8802 20.4094 73.1184 21.4326 73.6003 22.3396C74.0822 23.2467 74.7413 23.9547 75.5832 24.469C76.4251 24.9834 77.3833 25.2434 78.4579 25.2434Z" fill="#ffffff"/>
<path d="M95.7335 28.4292C94.5925 28.4292 93.5678 28.208 92.676 27.76C91.7788 27.312 91.0698 26.6925 90.5436 25.8961C90.0174 25.0996 89.7515 24.1704 89.7515 23.0919C89.7515 22.1517 89.9177 21.322 90.2556 20.6086C90.5934 19.8951 91.0919 19.2977 91.7511 18.8276C92.4102 18.3575 93.241 17.998 94.238 17.7546C95.235 17.5057 96.3815 17.384 97.6832 17.384H102.591L102.286 20.1384H97.2456C96.5754 20.1384 95.9717 20.1993 95.4455 20.3209C94.9193 20.4426 94.4706 20.6362 94.0995 20.8906C93.7284 21.1506 93.457 21.4492 93.2742 21.7977C93.0915 22.1461 93.0028 22.5554 93.0028 23.02C93.0028 23.4846 93.1247 23.9437 93.3739 24.3142C93.6176 24.6848 93.9555 24.9669 94.382 25.1715C94.8085 25.3762 95.3015 25.4757 95.8609 25.4757C96.6696 25.4757 97.4339 25.3375 98.165 25.0554C98.8906 24.7788 99.5442 24.3917 100.115 23.8994C100.685 23.4072 101.128 22.8596 101.444 22.2568L102.253 24.5078C101.782 25.2932 101.2 25.9735 100.502 26.5543C99.8101 27.135 99.0568 27.5941 98.2481 27.9315C97.4395 28.2688 96.6031 28.4348 95.728 28.4348L95.7335 28.4292ZM101.012 28.0919V16.6152C101.012 15.6307 100.658 14.8288 99.9541 14.2148C99.2507 13.6009 98.3589 13.2912 97.2788 13.2912C96.2929 13.2912 95.4012 13.4903 94.6091 13.894C93.8115 14.2978 93.0915 14.9117 92.4434 15.7414L90.1891 13.4903C91.2415 12.3509 92.3769 11.4992 93.601 10.9405C94.8196 10.3819 96.1378 10.0999 97.5502 10.0999C98.9626 10.0999 100.059 10.3266 101.045 10.7691C102.031 11.2171 102.796 11.8697 103.333 12.7326C103.87 13.5954 104.141 14.6407 104.141 15.8686V28.0863H101.018L101.012 28.0919Z" fill="#ffffff"/>
<path d="M106.894 28.0917V3.25244H110.356V28.0917H106.894Z" fill="#ffffff"/>
<path d="M112.001 28.0917L121.113 4.59644H124.807L133.846 28.0917H129.98L124.602 13.9271C124.536 13.7722 124.408 13.3906 124.214 12.7877C124.026 12.1848 123.804 11.5101 123.561 10.7744C123.311 10.0388 123.09 9.35853 122.89 8.74461C122.691 8.13068 122.553 7.73245 122.486 7.55546L123.262 7.52228C123.129 7.90391 122.962 8.3851 122.774 8.96584C122.586 9.54658 122.381 10.1605 122.17 10.8132C121.96 11.4603 121.749 12.0742 121.55 12.6439C121.351 13.2136 121.179 13.6892 121.046 14.0709L115.701 28.1027H112.007L112.001 28.0917ZM116.033 22.251L117.379 18.7611H128.069L129.615 22.251H116.033Z" fill="#ffffff"/>
<path d="M137.679 6.57661C136.937 6.57661 136.367 6.38856 135.962 6.00692C135.558 5.62529 135.358 5.0888 135.358 4.39743C135.358 3.75032 135.563 3.22488 135.979 2.82113C136.394 2.41737 136.959 2.21826 137.679 2.21826C138.399 2.21826 138.992 2.40631 139.391 2.78794C139.795 3.16958 139.994 3.70607 139.994 4.39743C139.994 5.04455 139.79 5.56998 139.374 5.97374C138.959 6.37749 138.394 6.57661 137.679 6.57661ZM136.001 28.0918V10.4704H139.463V28.0918H136.001Z" fill="#ffffff"/>
<path d="M23.8281 29.6625H4.29261C3.06852 29.6625 2.07153 28.6725 2.07153 27.4446C2.07153 26.2167 3.06298 25.2267 4.29261 25.2267H23.8281C23.878 25.2267 23.9278 25.2378 23.9777 25.2433V5.1717C23.9777 2.63855 21.9172 0.581055 19.3804 0.581055H4.59725C2.06045 0.581055 0 2.63855 0 5.1717V27.3229C0 29.8561 2.06045 31.9136 4.59725 31.9136H23.9777V29.6514C23.9278 29.6514 23.878 29.668 23.8281 29.668V29.6625Z" fill="#4ADE80"/>
</g>
<defs>
<clipPath id="clip0_83_592">
<rect width="140" height="35.2318" fill="white" transform="translate(0 0.581055)"/>
</clipPath>
</defs>
</svg>
